<?xml version="1.0" encoding="UTF-8" standalone="no"?>
<!-- Created with Inkscape (http://www.inkscape.org/) -->

<svg
   width="78.800003mm"
   height="7.8000002mm"
   viewBox="0 0 78.800008 7.8000004"
   version="1.1"
   id="svg4738"
   inkscape:version="1.4.3 (0d15f75042, 2025-12-25)"
   sodipodi:docname="email.logo_eQ_footer_2025.svg"
   xmlns:inkscape="http://www.inkscape.org/namespaces/inkscape"
   xmlns:sodipodi="http://sodipodi.sourceforge.net/DTD/sodipodi-0.dtd"
   xmlns="http://www.w3.org/2000/svg"
   xmlns:svg="http://www.w3.org/2000/svg"
   xmlns:rdf="http://www.w3.org/1999/02/22-rdf-syntax-ns#"
   xmlns:cc="http://creativecommons.org/ns#"
   xmlns:dc="http://purl.org/dc/elements/1.1/">
  <defs
     id="defs4732" />
  <sodipodi:namedview
     id="base"
     pagecolor="#ffffff"
     bordercolor="#666666"
     borderopacity="1.0"
     inkscape:pageopacity="0.0"
     inkscape:pageshadow="2"
     inkscape:zoom="2.1748891"
     inkscape:cx="90.349434"
     inkscape:cy="-21.150504"
     inkscape:document-units="mm"
     inkscape:current-layer="layer1"
     showgrid="false"
     inkscape:window-width="1920"
     inkscape:window-height="1011"
     inkscape:window-x="0"
     inkscape:window-y="0"
     inkscape:window-maximized="1"
     inkscape:snap-bbox="false"
     inkscape:bbox-nodes="true"
     inkscape:bbox-paths="true"
     inkscape:snap-text-baseline="true"
     inkscape:pagecheckerboard="0"
     inkscape:showpageshadow="2"
     inkscape:deskcolor="#d1d1d1" />
  <metadata
     id="metadata4735">
    <rdf:RDF>
      <cc:Work
         rdf:about="">
        <dc:format>image/svg+xml</dc:format>
        <dc:type
           rdf:resource="http://purl.org/dc/dcmitype/StillImage" />
      </cc:Work>
    </rdf:RDF>
  </metadata>
  <g
     style="display:inline;stroke-width:0.833333"
     inkscape:label="Layer 2"
     id="layer2"
     inkscape:groupmode="layer"
     transform="matrix(1.2,0,0,1.2,-16.995301,-97.357397)" />
  <g
     inkscape:label="Layer 1"
     inkscape:groupmode="layer"
     id="layer1"
     transform="translate(-3.5986912,-77.853246)"
     style="display:inline">
    <g
       id="g1"
       transform="translate(10.562057,-14.188796)">
      <text
         xml:space="preserve"
         style="font-style:normal;font-weight:normal;font-size:6.08481px;line-height:125%;font-family:sans-serif;letter-spacing:0px;word-spacing:0px;fill:#000000;fill-opacity:1;stroke:none;stroke-width:0.264583px;stroke-linecap:butt;stroke-linejoin:miter;stroke-opacity:1"
         x="52.826782"
         y="125.43476"
         id="text5289" />
      <text
         xml:space="preserve"
         style="font-style:normal;font-weight:normal;font-size:6.08481px;line-height:125%;font-family:sans-serif;letter-spacing:0px;word-spacing:0px;fill:#000000;fill-opacity:1;stroke:none;stroke-width:0.264583px;stroke-linecap:butt;stroke-linejoin:miter;stroke-opacity:1"
         x="36.689808"
         y="85.343277"
         id="text5295" />
      <text
         xml:space="preserve"
         style="font-style:normal;font-weight:normal;font-size:3.1816px;line-height:125%;font-family:sans-serif;letter-spacing:0px;word-spacing:0px;fill:#000000;fill-opacity:1;stroke:none;stroke-width:0.264583px;stroke-linecap:butt;stroke-linejoin:miter;stroke-opacity:1"
         x="24.415754"
         y="93.21981"
         id="text828" />
      <flowRoot
         xml:space="preserve"
         id="flowRoot862"
         style="font-style:normal;font-weight:normal;font-size:10.6667px;line-height:125%;font-family:sans-serif;letter-spacing:0px;word-spacing:0px;fill:#000000;fill-opacity:1;stroke:none;stroke-width:0.887046px;stroke-linecap:butt;stroke-linejoin:miter;stroke-opacity:1"
         transform="matrix(0.29827477,0,0,0.29827477,22.924381,71.816621)"><flowRegion
           id="flowRegion864"
           style="stroke-width:0.887046px"><rect
             id="rect866"
             width="268"
             height="72.5"
             x="-26"
             y="81.756653"
             style="stroke-width:0.88704562px" /></flowRegion><flowPara
           id="flowPara868"
           style="stroke-width:0.887046px" /></flowRoot>
      <flowRoot
         xml:space="preserve"
         id="flowRoot5134"
         style="font-style:normal;font-weight:normal;font-size:10.6667px;line-height:125%;font-family:sans-serif;letter-spacing:0px;word-spacing:0px;fill:#000000;fill-opacity:1;stroke:none;stroke-width:1px;stroke-linecap:butt;stroke-linejoin:miter;stroke-opacity:1"><flowRegion
           id="flowRegion5136"><rect
             id="rect5138"
             width="172"
             height="45.5"
             x="-18.5"
             y="-14.540985" /></flowRegion><flowPara
           id="flowPara5140" /></flowRoot>
      <flowRoot
         xml:space="preserve"
         id="flowRoot884"
         style="font-style:normal;font-variant:normal;font-weight:normal;font-stretch:normal;font-size:10.6667px;line-height:125%;font-family:ZephyrScriptFLF;-inkscape-font-specification:ZephyrScriptFLF;letter-spacing:0px;word-spacing:0px;fill:#000000;fill-opacity:1;stroke:none;stroke-width:1px;stroke-linecap:butt;stroke-linejoin:miter;stroke-opacity:1"><flowRegion
           id="flowRegion886"><rect
             id="rect888"
             width="1975.6562"
             height="115.96551"
             x="-14.142136"
             y="-35.425209" /></flowRegion><flowPara
           id="flowPara890" /></flowRoot>
      <flowRoot
         xml:space="preserve"
         id="flowRoot892"
         style="font-style:normal;font-variant:normal;font-weight:normal;font-stretch:normal;font-size:10.6667px;line-height:125%;font-family:ZephyrScriptFLF;-inkscape-font-specification:ZephyrScriptFLF;letter-spacing:0px;word-spacing:0px;fill:#000000;fill-opacity:1;stroke:none;stroke-width:1px;stroke-linecap:butt;stroke-linejoin:miter;stroke-opacity:1"><flowRegion
           id="flowRegion894"><rect
             id="rect896"
             width="759.43268"
             height="304.05591"
             x="-73.539101"
             y="-104.01456" /></flowRegion><flowPara
           id="flowPara898" /></flowRoot>
      <path
         style="font-weight:500;font-size:7.92763px;line-height:125%;font-family:Montserrat;-inkscape-font-specification:'Montserrat Medium';letter-spacing:-0.525914px;word-spacing:0px;fill:#1a222c;stroke-width:0.204963px"
         d="m -6.328624,98.14196 h 0.7610525 V 93.940316 H -6.328624 Z m 0.3805262,-5.010262 c 0.30125,0 0.515296,-0.221974 0.515296,-0.507368 0,-0.26954 -0.2219737,-0.483586 -0.515296,-0.483586 -0.2853947,0 -0.5073683,0.221974 -0.5073683,0.499441 0,0.277467 0.2219736,0.491513 0.5073683,0.491513 z m 1.3053633,5.010262 h 0.7610524 v -2.164243 c 0,-0.911677 0.5232236,-1.395263 1.3318419,-1.395263 0.7214143,0 1.1336511,0.404309 1.1336511,1.228783 v 2.330723 h 0.76105243 v -2.417927 c 0,-1.23671 -0.72141433,-1.823355 -1.74407863,-1.823355 -0.6659209,0 -1.2049997,0.237829 -1.5141773,0.673849 v -0.634211 h -0.7293419 z m 4.9837869,0 h 0.7610525 v -3.575361 h 1.2049997 v -0.626283 h -1.220855 v -0.364671 c 0,-0.483585 0.2299013,-0.737269 0.6817762,-0.737269 0.2219736,0 0.428092,0.07928 0.5866446,0.19819 l 0.2299013,-0.578717 c -0.214046,-0.16648 -0.5311512,-0.245756 -0.8561841,-0.245756 -0.89582214,0 -1.3873352,0.539079 -1.3873352,1.355625 v 0.372598 h -0.71348669 v 0.626283 H 0.3410524 Z m 3.8977131,0.04757 c 1.2604931,0 2.1800982,-0.895822 2.1800982,-2.148388 0,-1.252565 -0.9196051,-2.14046 -2.1800982,-2.14046 -1.2604932,0 -2.1880259,0.887895 -2.1880259,2.14046 0,1.252566 0.9275327,2.148388 2.1880259,2.148388 z m 0,-0.665921 c -0.8086183,0 -1.4190458,-0.586645 -1.4190458,-1.482467 0,-0.895822 0.6104275,-1.474539 1.4190458,-1.474539 0.8086182,0 1.4111181,0.578717 1.4111181,1.474539 0,0.895822 -0.6024999,1.482467 -1.4111181,1.482467 z m 6.0778035,2.219736 c 0.562862,0 1.220855,-0.126842 1.704441,-0.372598 l -0.174408,-0.507369 c -0.46773,0.245757 -1.046447,0.348816 -1.530033,0.348816 -1.8788482,0 -3.1314137,-1.268421 -3.1314137,-3.083848 0,-1.799572 1.2684208,-3.067993 3.1631247,-3.067993 1.87092,0 3.155196,1.189145 3.155196,2.964934 0,0.990954 -0.269539,1.561743 -0.737269,1.561743 -0.245757,0 -0.451875,-0.150625 -0.451875,-0.570789 V 94.16229 h -0.689704 v 0.63421 c -0.325033,-0.436019 -0.832401,-0.665921 -1.450756,-0.665921 -1.1257236,0 -1.9422695,0.840329 -1.9422695,2.021546 0,1.181217 0.8165459,2.037401 1.9422695,2.037401 0.657993,0 1.189144,-0.261612 1.506249,-0.753125 0.09513,0.483586 0.443948,0.753125 0.951316,0.753125 0.895822,0 1.411118,-0.824474 1.411118,-2.172171 0,-2.053256 -1.522105,-3.480229 -3.694275,-3.480229 -2.2197367,0 -3.7418417,1.498322 -3.7418417,3.591216 0,2.100822 1.5062497,3.614999 3.7101307,3.614999 z m -0.03171,-2.17217 c -0.7927634,0 -1.3476975,-0.562862 -1.3476975,-1.419046 0,-0.864112 0.5549341,-1.411118 1.3476975,-1.411118 0.76898,0 1.355624,0.531151 1.355624,1.411118 0,0.879967 -0.586644,1.419046 -1.355624,1.419046 z m 6.701573,0.618355 c 0.697632,0 1.276349,-0.237829 1.656875,-0.681776 l -0.420164,-0.491513 c -0.309178,0.340888 -0.721415,0.507368 -1.212928,0.507368 -0.832401,0 -1.426973,-0.491513 -1.522105,-1.228783 h 3.408881 c 0.0079,-0.07135 0.01585,-0.16648 0.01585,-0.229901 0,-1.292204 -0.864111,-2.164243 -2.077039,-2.164243 -1.212927,0 -2.108749,0.895822 -2.108749,2.14046 0,1.252566 0.90375,2.148388 2.259374,2.148388 z m -1.498322,-2.44171 c 0.0872,-0.721414 0.618355,-1.205 1.347697,-1.205 0.73727,0 1.268421,0.491513 1.347697,1.205 z"
         id="text5285-6"
         aria-label="info@e" />
      <path
         style="font-weight:500;font-size:7.92763px;line-height:125%;font-family:Montserrat;-inkscape-font-specification:'Montserrat Medium';letter-spacing:-0.525914px;word-spacing:0px;fill:#1a222c;stroke-width:0.204963px"
         d="m 22.994583,99.461908 c 0.554934,0 1.038519,-0.229901 1.395263,-0.650066 l -0.372599,-0.451875 c -0.285394,0.317105 -0.618355,0.475658 -1.014736,0.475658 -0.356744,0 -0.689704,-0.158553 -1.062303,-0.554934 1.292204,-0.30125 2.180098,-1.37148 2.180098,-2.750888 0,-1.633091 -1.252565,-2.838091 -2.94115,-2.838091 -1.704441,0 -2.957006,1.212927 -2.957006,2.838091 0,1.561743 1.157434,2.74296 2.750887,2.830164 0.76898,0.808619 1.323915,1.101941 2.021546,1.101941 z m -1.815427,-1.799572 c -1.244638,0 -2.164243,-0.911678 -2.164243,-2.132533 0,-1.220855 0.919605,-2.132532 2.164243,-2.132532 1.228782,0 2.148387,0.911677 2.148387,2.132532 0,1.220855 -0.919605,2.132533 -2.148387,2.132533 z m 5.28504,0.689704 c 0.594572,0 1.117795,-0.245757 1.426973,-0.673849 v 0.626283 h 0.721414 V 94.10283 h -0.761052 v 2.172171 c 0,0.903749 -0.507368,1.395262 -1.300131,1.395262 -0.721415,0 -1.133652,-0.412236 -1.133652,-1.23671 V 94.10283 h -0.761052 v 2.417927 c 0,1.23671 0.721414,1.831283 1.8075,1.831283 z m 5.68142,-0.04757 h 0.721414 v -2.536842 c 0,-1.149506 -0.650065,-1.70444 -1.799572,-1.70444 -0.673848,0 -1.300131,0.190263 -1.736151,0.539079 l 0.317106,0.570789 c 0.325032,-0.277467 0.832401,-0.451875 1.331841,-0.451875 0.753125,0 1.125724,0.372599 1.125724,1.014737 v 0.150625 h -1.205 c -1.252565,0 -1.688585,0.554934 -1.688585,1.228782 0,0.729342 0.6025,1.236711 1.553815,1.236711 0.657994,0 1.125724,-0.221974 1.379408,-0.594573 z m -0.03964,-1.284276 c -0.190263,0.483585 -0.642138,0.745197 -1.212928,0.745197 -0.578717,0 -0.927532,-0.261612 -0.927532,-0.681776 0,-0.356743 0.214046,-0.650066 0.967171,-0.650066 h 1.173289 z m 1.646253,1.284276 h 0.761053 v -2.164243 c 0,-0.911678 0.523223,-1.395263 1.331842,-1.395263 0.721414,0 1.133651,0.404309 1.133651,1.228783 v 2.330723 h 0.761052 v -2.417927 c 0,-1.236711 -0.721414,-1.823355 -1.744078,-1.823355 -0.665921,0 -1.205,0.237829 -1.514178,0.673848 v -0.63421 h -0.729342 z m 6.315628,0.04757 c 0.340888,0 0.689704,-0.09513 0.919605,-0.293323 l -0.237829,-0.547006 c -0.158552,0.126842 -0.372599,0.198191 -0.594572,0.198191 -0.420165,0 -0.657993,-0.253685 -0.657993,-0.705559 v -2.27523 h 1.204999 V 94.10283 H 39.49707 V 93.183225 H 38.736017 V 94.10283 H 38.02253 v 0.626283 h 0.713487 v 2.30694 c 0,0.848256 0.483586,1.315987 1.331842,1.315987 z m 3.762928,-0.04757 h 0.721414 v -2.536842 c 0,-1.149506 -0.650065,-1.70444 -1.799572,-1.70444 -0.673848,0 -1.300131,0.190263 -1.73615,0.539079 l 0.317105,0.570789 c 0.325033,-0.277467 0.832401,-0.451875 1.331842,-0.451875 0.753124,0 1.125723,0.372599 1.125723,1.014737 v 0.150625 h -1.205 c -1.252565,0 -1.688585,0.554934 -1.688585,1.228782 0,0.729342 0.6025,1.236711 1.553816,1.236711 0.657993,0 1.125723,-0.221974 1.379407,-0.594573 z m -0.03964,-1.284276 c -0.190263,0.483585 -0.642138,0.745197 -1.212927,0.745197 -0.578717,0 -0.927533,-0.261612 -0.927533,-0.681776 0,-0.356743 0.214046,-0.650066 0.967171,-0.650066 h 1.173289 z m 1.828589,1.331842 c 0.285395,0 0.523224,-0.229902 0.523224,-0.547007 0,-0.317105 -0.237829,-0.539079 -0.523224,-0.539079 -0.293322,0 -0.539079,0.221974 -0.539079,0.539079 0,0.317105 0.245757,0.547007 0.539079,0.547007 z m 2.827473,0 c 0.753125,0 1.379408,-0.317106 1.712368,-0.90375 l -0.578717,-0.364671 c -0.269539,0.412237 -0.681776,0.6025 -1.141579,0.6025 -0.824473,0 -1.442828,-0.57079 -1.442828,-1.482467 0,-0.895822 0.618355,-1.474539 1.442828,-1.474539 0.459803,0 0.87204,0.190263 1.141579,0.6025 l 0.578717,-0.372599 c -0.33296,-0.586645 -0.959243,-0.895822 -1.712368,-0.895822 -1.292204,0 -2.219736,0.887894 -2.219736,2.14046 0,1.252565 0.927532,2.148388 2.219736,2.148388 z m 3.905629,0 c 1.260493,0 2.180098,-0.895823 2.180098,-2.148388 0,-1.252566 -0.919605,-2.14046 -2.180098,-2.14046 -1.260493,0 -2.188026,0.887894 -2.188026,2.14046 0,1.252565 0.927533,2.148388 2.188026,2.148388 z m 0,-0.665921 c -0.808618,0 -1.419046,-0.586645 -1.419046,-1.482467 0,-0.895822 0.610428,-1.474539 1.419046,-1.474539 0.808618,0 1.411118,0.578717 1.411118,1.474539 0,0.895822 -0.6025,1.482467 -1.411118,1.482467 z m 2.708563,0.618355 h 0.761053 v -2.164243 c 0,-0.911678 0.49944,-1.395263 1.260493,-1.395263 0.689703,0 1.086085,0.404309 1.086085,1.228783 v 2.330723 h 0.761052 v -2.164243 c 0,-0.911678 0.499441,-1.395263 1.260494,-1.395263 0.689703,0 1.086085,0.404309 1.086085,1.228783 v 2.330723 h 0.761052 v -2.417927 c 0,-1.236711 -0.697631,-1.823355 -1.720295,-1.823355 -0.705559,0 -1.300132,0.30125 -1.617237,0.776908 -0.277467,-0.523224 -0.808618,-0.776908 -1.458684,-0.776908 -0.63421,0 -1.149506,0.237829 -1.450756,0.665921 V 94.10283 h -0.729342 z m 8.03592,0.04757 c 0.285394,0 0.523223,-0.229902 0.523223,-0.547007 0,-0.317105 -0.237829,-0.539079 -0.523223,-0.539079 -0.293322,0 -0.539079,0.221974 -0.539079,0.539079 0,0.317105 0.245757,0.547007 0.539079,0.547007 z m 3.318979,0 c 1.228783,0 2.124605,-0.864112 2.124605,-2.148388 0,-1.284276 -0.895822,-2.14046 -2.124605,-2.14046 -0.586644,0 -1.117795,0.221973 -1.466611,0.665921 v -2.306941 h -0.761053 v 5.882302 h 0.729342 v -0.657993 c 0.348816,0.46773 0.879967,0.705559 1.498322,0.705559 z m -0.06342,-0.665921 c -0.80069,0 -1.411118,-0.586645 -1.411118,-1.482467 0,-0.895822 0.610428,-1.474539 1.411118,-1.474539 0.808619,0 1.419046,0.578717 1.419046,1.474539 0,0.895822 -0.610427,1.482467 -1.419046,1.482467 z m 2.716479,0.618355 h 0.761053 V 96.21158 c 0,-0.919606 0.507368,-1.419046 1.323914,-1.419046 0.05549,0 0.110987,0 0.174408,0.0079 v -0.737269 c -0.729342,0 -1.260493,0.253684 -1.530033,0.737269 V 94.10283 H 69.06936 Z"
         id="text5285-3"
         aria-label="Quanta.com.br" />
    </g>
  </g>
</svg>
