<?xml version="1.0" encoding="UTF-8" standalone="no"?>
<!-- Created with Inkscape (http://www.inkscape.org/) -->

<svg
   version="1.1"
   id="svg1"
   width="200"
   height="50.666668"
   viewBox="0 0 200 50.666668"
   sodipodi:docname="logoblack_eQuanta.svg"
   inkscape:version="1.4.3 (0d15f75042, 2025-12-25)"
   xmlns:inkscape="http://www.inkscape.org/namespaces/inkscape"
   xmlns:sodipodi="http://sodipodi.sourceforge.net/DTD/sodipodi-0.dtd"
   xmlns="http://www.w3.org/2000/svg"
   xmlns:svg="http://www.w3.org/2000/svg">
  <defs
     id="defs1" />
  <sodipodi:namedview
     id="namedview1"
     pagecolor="#ffffff"
     bordercolor="#666666"
     borderopacity="1.0"
     inkscape:showpageshadow="2"
     inkscape:pageopacity="0.0"
     inkscape:pagecheckerboard="0"
     inkscape:deskcolor="#d1d1d1"
     inkscape:zoom="3.215"
     inkscape:cx="100"
     inkscape:cy="25.194401"
     inkscape:window-width="1920"
     inkscape:window-height="1011"
     inkscape:window-x="0"
     inkscape:window-y="0"
     inkscape:window-maximized="1"
     inkscape:current-layer="g1">
    <inkscape:page
       x="0"
       y="0"
       inkscape:label="1"
       id="page1"
       width="200"
       height="50.666668"
       margin="0"
       bleed="0" />
  </sodipodi:namedview>
  <g
     id="g1"
     inkscape:groupmode="layer"
     inkscape:label="1">
    <path
       style="font-weight:600;font-size:36.1074px;font-family:Montserrat"
       d="m 12.023764,0.25275179 c 3.321881,0 6.029935,-1.08322197 7.763091,-3.14134369 l -2.419196,-2.7802697 c -1.372081,1.4081885 -3.069129,2.0942291 -5.235573,2.0942291 -3.357988,0 -5.704969,-1.8053699 -6.24658,-4.6217471 h 15.129 c 0.03611,-0.4332888 0.07221,-0.9748997 0.07221,-1.3359737 0,-6.0299357 -4.116243,-9.9656417 -9.748998,-9.9656417 -5.7410762,0 -9.9656418,4.116243 -9.9656418,9.8573195 0,5.7410764 4.1884582,9.89342729 10.6516828,9.89342729 z M 5.8493986,-11.193294 c 0.4332888,-2.816377 2.5636254,-4.693962 5.4883244,-4.693962 2.960807,0 5.091144,1.913693 5.452218,4.693962 z M 38.598804,5.524432 c 2.671948,0 4.946714,-1.0471145 6.607654,-2.9969141 l -2.166444,-2.5997327 c -1.227651,1.3359738 -2.671947,2.0220143 -4.332888,2.0220143 -1.444295,0 -2.780269,-0.5777183 -4.224565,-2.13033649 5.632754,-1.58872561 9.460138,-6.35490221 9.460138,-12.45705301 0,-7.510339 -5.777184,-12.998663 -13.612489,-12.998663 -7.835306,0 -13.61249,5.524432 -13.61249,12.998663 0,7.0048358 5.055036,12.27651601 12.168194,12.92644919 3.719062,3.89959911 6.282687,5.23557281 9.71289,5.23557281 z M 30.33021,-3.7551695 c -5.091143,0 -8.88242,-3.7190621 -8.88242,-8.8824205 0,-5.163358 3.791277,-8.88242 8.88242,-8.88242 5.091143,0 8.88242,3.719062 8.88242,8.88242 0,5.1633584 -3.791277,8.8824205 -8.88242,8.8824205 z m 24.589174,4.00792129 c 2.491411,0 4.766177,-0.93879237 6.210473,-2.70805489 V 0 h 4.296781 v -19.281351 h -4.513425 v 9.7489977 c 0,3.8634917 -2.130337,5.8132912 -5.271681,5.8132912 -2.852484,0 -4.513424,-1.6609403 -4.513424,-5.1633581 V -19.281351 h -4.513425 v 11.0127566 c 0,5.8132913 3.357988,8.52134619 8.304701,8.52134619 z M 81.494423,0 h 4.260673 v -11.301616 c 0,-5.560539 -3.213559,-8.196379 -8.774098,-8.196379 -3.105237,0 -6.102151,0.794362 -8.160272,2.383088 l 1.769262,3.285773 c 1.444296,-1.191544 3.682955,-1.913692 5.849399,-1.913692 3.213558,0 4.802284,1.552618 4.802284,4.188458 v 0.28886 H 76.25885 c -5.849399,0 -8.015843,2.5275174 -8.015843,5.741076 0,3.3579881 2.78027,5.77718379 7.185373,5.77718379 2.888591,0 4.946713,-0.93879237 6.066043,-2.56362529 z m -0.252752,-6.0299356 c -0.758256,1.9859069 -2.671948,2.9969141 -4.874499,2.9969141 -2.310874,0 -3.682955,-1.0471146 -3.682955,-2.6719475 0,-1.4081886 0.83047,-2.5636254 3.899599,-2.5636254 h 4.657855 z M 89.835242,0 h 4.513425 v -9.7489977 c 0,-3.8634913 2.166444,-5.8132913 5.380002,-5.8132913 2.888591,0 4.585641,1.66094 4.585641,5.091143 V 0 h 4.51342 v -11.048864 c 0,-5.813291 -3.4302,-8.449131 -8.05195,-8.449131 -2.816373,0 -5.163354,0.938792 -6.643757,2.708054 v -2.49141 h -4.296781 z m 30.257988,0.25275179 c 1.62483,0 3.24966,-0.43328878 4.33288,-1.29986639 l -1.26376,-3.2135585 c -0.68604,0.541611 -1.58872,0.7943628 -2.52751,0.7943628 -1.73316,0 -2.67195,-1.0110072 -2.67195,-2.8885919 v -9.3157088 h 5.16336 v -3.61074 h -5.16336 v -4.260673 h -4.51343 v 4.260673 h -3.17745 v 3.61074 h 3.17745 v 9.424031 c 0,4.2606731 2.4192,6.49933179 6.64377,6.49933179 z M 138.29135,0 h 4.26067 v -11.301616 c 0,-5.560539 -3.21355,-8.196379 -8.77409,-8.196379 -3.10524,0 -6.10215,0.794362 -8.16028,2.383088 l 1.76927,3.285773 c 1.44429,-1.191544 3.68295,-1.913692 5.8494,-1.913692 3.21355,0 4.80228,1.552618 4.80228,4.188458 v 0.28886 h -4.98282 c -5.8494,0 -8.01584,2.5275174 -8.01584,5.741076 0,3.3579881 2.78027,5.77718379 7.18537,5.77718379 2.88859,0 4.94671,-0.93879237 6.06604,-2.56362529 z m -0.25275,-6.0299356 c -0.75826,1.9859069 -2.67195,2.9969141 -4.8745,2.9969141 -2.31087,0 -3.68295,-1.0471146 -3.68295,-2.6719475 0,-1.4081886 0.83047,-2.5636254 3.89959,-2.5636254 h 4.65786 z"
       id="text1"
       transform="matrix(1.3333333,0,0,1.352415,4.0447613,38.933091)"
       aria-label="eQuanta" />
  </g>
</svg>
